<svg xmlns="http://www.w3.org/2000/svg" viewBox="0 0 64 64">
  <defs>
    <linearGradient id="leafGradient" x1="0%" y1="0%" x2="100%" y2="100%">
      <stop offset="0%" style="stop-color:#22c55e;stop-opacity:1" />
      <stop offset="100%" style="stop-color:#16a34a;stop-opacity:1" />
    </linearGradient>
  </defs>
  <path fill="url(#leafGradient)" d="M32 4C18 4 8 18 8 32c0 10 6 18 14 22 2-8 6-14 10-18 4 4 8 10 10 18 8-4 14-12 14-22C56 18 46 4 32 4z"/>
  <path fill="#15803d" d="M32 20c0 16-4 28-4 28s4-2 4-8c0 6 4 8 4 8s-4-12-4-28z"/>
  <circle cx="32" cy="14" r="3" fill="#86efac"/>
</svg>
